<svg width="400" height="200" viewBox="0 0 400 200" fill="none" xmlns="http://www.w3.org/2000/svg">
  <defs>
    <linearGradient id="leftPageGradient" x1="0" y1="0" x2="1" y2="0">
      <stop offset="0%" stop-color="#2D547F"/>
      <stop offset="100%" stop-color="#4A759E"/>
    </linearGradient>
    <linearGradient id="rightPageGradient" x1="0" y1="0" x2="1" y2="0">
      <stop offset="0%" stop-color="#FF7F00"/>
      <stop offset="100%" stop-color="#FF4500"/>
    </linearGradient>
  </defs>

  <path d="M100 50 L20 100 L100 150 L180 100 Z" fill="#2D547F"/>
  
  <path d="M300 50 L380 100 L300 150 L220 100 Z" fill="#FF7F00"/>

  <path d="M100 50 L180 100 L180 150 L100 150 Z" fill="#E0E0E0"/>
  
  <path d="M220 100 L300 50 L300 150 L220 150 Z" fill="#F5F5F5"/>

  <rect x="180" y="50" width="40" height="100" fill="#4A759E"/>

  <text x="120" y="75" font-family="monospace" font-size="10" fill="#2D547F">010101</text>
  <text x="110" y="90" font-family="monospace" font-size="10" fill="#2D547F">101010</text>
  <text x="125" y="105" font-family="monospace" font-size="10" fill="#2D547F">001100</text>
  <line x1="105" y1="120" x2="175" y2="135" stroke="#2D547F" stroke-width="1"/>
  <circle cx="105" cy="120" r="2" fill="#2D547F"/>
  <circle cx="175" cy="135" r="2" fill="#2D547F"/>

  <line x1="225" y1="70" x2="295" y2="85" stroke="#FF4500" stroke-width="1"/>
  <circle cx="225" cy="70" r="2" fill="#FF4500"/>
  <circle cx="295" cy="85" r="2" fill="#FF4500"/>
  <text x="230" y="120" font-family="monospace" font-size="10" fill="#FF4500">_|_</text>
  <text x="250" y="135" font-family="monospace" font-size="10" fill="#FF4500">_|_</text>


  <text x="200" y="180" font-family="Arial, sans-serif" font-weight="bold" font-size="30" fill="#2D547F" text-anchor="middle">
    BOOKSTORE
  </text>

  <text x="200" y="205" font-family="Arial, sans-serif" font-size="15" fill="#555555" text-anchor="middle">
    & CODING SYSTEM
  </text>
</svg>